<svg width="25" height="24" viewBox="0 0 25 24" fill="none" xmlns="http://www.w3.org/2000/svg">
<g id="Notification">
<path id="Vector" d="M19.4986 9.7041V9C19.4986 5.13401 16.3646 2 12.4986 2C8.63261 2 5.4986 5.13401 5.4986 9V9.7041C5.4986 10.5491 5.24848 11.3752 4.77977 12.0783L3.63116 13.8012C2.58203 15.3749 3.38295 17.5139 5.20766 18.0116C9.98112 19.3134 15.0161 19.3134 19.7895 18.0116C21.6142 17.5139 22.4152 15.3749 21.366 13.8012L20.2174 12.0783C19.7487 11.3752 19.4986 10.5491 19.4986 9.7041Z" stroke="#333333" stroke-width="1.5"/>
<path id="Vector_2" d="M8 19C8.65503 20.7478 10.4225 22 12.5 22C14.5775 22 16.345 20.7478 17 19" stroke="#333333" stroke-width="1.5" stroke-linecap="round"/>
</g>
</svg>
