<svg width="24" height="24" viewBox="0 0 24 24" fill="none" xmlns="http://www.w3.org/2000/svg">
<g id="Frame">
<g id="Group">
<path id="Vector" fill-rule="evenodd" clip-rule="evenodd" d="M10.024 2.74397C10.6061 2.34583 11.2948 2.13281 12 2.13281C12.7052 2.13281 13.3939 2.34583 13.976 2.74397L20.476 7.19197C20.9456 7.51321 21.3299 7.94411 21.5954 8.44734C21.861 8.95058 21.9999 9.51097 22 10.08V18.498C22 19.4262 21.6312 20.3165 20.9749 20.9728C20.3185 21.6292 19.4283 21.998 18.5 21.998H5.5C4.57174 21.998 3.6815 21.6292 3.02513 20.9728C2.36875 20.3165 2 19.4262 2 18.498V10.08C2.00014 9.51097 2.139 8.95058 2.40455 8.44734C2.67011 7.94411 3.05435 7.51321 3.524 7.19197L10.024 2.74397ZM9.5 17.498C9.36739 17.498 9.24021 17.5506 9.14644 17.6444C9.05268 17.7382 9 17.8654 9 17.998C9 18.1306 9.05268 18.2578 9.14644 18.3515C9.24021 18.4453 9.36739 18.498 9.5 18.498H14.5C14.6326 18.498 14.7598 18.4453 14.8536 18.3515C14.9473 18.2578 15 18.1306 15 17.998C15 17.8654 14.9473 17.7382 14.8536 17.6444C14.7598 17.5506 14.6326 17.498 14.5 17.498H9.5Z" fill="black"/>
</g>
</g>
</svg>
