<svg width="10" height="11" viewBox="0 0 10 11" fill="none" xmlns="http://www.w3.org/2000/svg">
<path d="M5 0.5C2.25371 0.5 0 2.75371 0 5.5C0 8.24629 2.25371 10.5 5 10.5C7.74629 10.5 10 8.24629 10 5.5C10 2.75371 7.74629 0.5 5 0.5ZM5.58594 7.84375C5.58594 8.16676 5.32301 8.42969 5 8.42969C4.67699 8.42969 4.41406 8.16676 4.41406 7.84375V4.91406C4.41406 4.59105 4.67699 4.32812 5 4.32812C5.32301 4.32812 5.58594 4.59105 5.58594 4.91406V7.84375ZM5 3.74219C4.67699 3.74219 4.41406 3.47926 4.41406 3.15625C4.41406 2.83324 4.67699 2.57031 5 2.57031C5.32301 2.57031 5.58594 2.83324 5.58594 3.15625C5.58594 3.47926 5.32301 3.74219 5 3.74219Z" fill="black"/>
</svg>
