<svg width="10" height="10" viewBox="0 0 10 10" fill="none" xmlns="http://www.w3.org/2000/svg">
<g id="Frame" clip-path="url(#clip0_2044_41401)">
<g id="Group">
<path id="Vector" d="M5 0C2.23627 0 0 2.23646 0 5C0 7.76373 2.23646 10 5 10C7.76373 10 10 7.76354 10 5C10 2.23627 7.76352 0 5 0ZM5 9.21875C2.66811 9.21875 0.78125 7.33174 0.78125 5C0.78125 2.66811 2.66826 0.78125 5 0.78125C7.33189 0.78125 9.21875 2.66826 9.21875 5C9.21875 7.33189 7.33172 9.21875 5 9.21875Z" fill="#FF3F3F"/>
<path id="Vector_2" d="M5 4.18555C4.78426 4.18555 4.60938 4.36043 4.60938 4.57617V7.09166C4.60938 7.3074 4.78426 7.48229 5 7.48229C5.21574 7.48229 5.39062 7.30738 5.39062 7.09164V4.57617C5.39062 4.36043 5.21574 4.18555 5 4.18555Z" fill="#FF3F3F"/>
<path id="Vector_3" d="M4.99609 3.70703C5.28734 3.70703 5.52344 3.47093 5.52344 3.17969C5.52344 2.88844 5.28734 2.65234 4.99609 2.65234C4.70485 2.65234 4.46875 2.88844 4.46875 3.17969C4.46875 3.47093 4.70485 3.70703 4.99609 3.70703Z" fill="#FF3F3F"/>
</g>
</g>
<defs>
<clipPath id="clip0_2044_41401">
<rect width="10" height="10" fill="white"/>
</clipPath>
</defs>
</svg>
