<svg width="24" height="24" viewBox="0 0 24 24" fill="none" xmlns="http://www.w3.org/2000/svg">
<g id="Group 1000003529">
<g id="vuesax/linear/slider-horizontal">
<g id="slider-horizontal">
<path id="Vector" d="M5 16.5V7.5C5 6.88 5.02 6.33 5.09 5.84C5.38 3.21 6.62 2.5 10 2.5H14C17.38 2.5 18.62 3.21 18.91 5.84C18.98 6.33 19 6.88 19 7.5V16.5C19 17.12 18.98 17.67 18.91 18.16C18.62 20.79 17.38 21.5 14 21.5H10C6.62 21.5 5.38 20.79 5.09 18.16C5.02 17.67 5 17.12 5 16.5Z" stroke="#808080" stroke-width="1.5" stroke-linecap="round" stroke-linejoin="round"/>
<path id="Vector_2" d="M2 19.5V4.5" stroke="#808080" stroke-width="1.5" stroke-linecap="round" stroke-linejoin="round"/>
<path id="Vector_3" d="M22 19V4" stroke="#808080" stroke-width="1.5" stroke-linecap="round" stroke-linejoin="round"/>
</g>
</g>
<path id="Vector_4" d="M8 8H15" stroke="#808080" stroke-width="1.5" stroke-miterlimit="10" stroke-linecap="round" stroke-linejoin="round"/>
<path id="Vector_5" d="M8 16H15" stroke="#808080" stroke-width="1.5" stroke-miterlimit="10" stroke-linecap="round" stroke-linejoin="round"/>
<path id="Vector_6" d="M8 12H12" stroke="#808080" stroke-width="1.5" stroke-miterlimit="10" stroke-linecap="round" stroke-linejoin="round"/>
</g>
</svg>
