<svg width="32" height="32" viewBox="0 0 32 32" fill="none" xmlns="http://www.w3.org/2000/svg">
<g id="Frame" clip-path="url(#clip0_2004_24542)">
<g id="Group">
<path id="Vector" d="M21.894 7.16016H20.6663V9.61551H21.894C22.2196 9.61551 22.5318 9.48617 22.7621 9.25593C22.9923 9.0257 23.1217 8.71344 23.1217 8.38783C23.1217 8.06223 22.9923 7.74997 22.7621 7.51973C22.5318 7.2895 22.2196 7.16016 21.894 7.16016ZM21.894 3.72266H20.6663V6.17801H21.894C22.2196 6.17801 22.5318 6.04867 22.7621 5.81843C22.9923 5.5882 23.1217 5.27594 23.1217 4.95033C23.1217 4.62473 22.9923 4.31247 22.7621 4.08223C22.5318 3.852 22.2196 3.72266 21.894 3.72266ZM24.1529 15.0173C23.8403 15.0173 23.5405 15.1415 23.3195 15.3625C23.0985 15.5835 22.9743 15.8833 22.9743 16.1959V19.928C22.9743 20.0583 22.9226 20.1832 22.8305 20.2753C22.7384 20.3673 22.6135 20.4191 22.4833 20.4191C22.353 20.4191 22.2281 20.3673 22.136 20.2753C22.0439 20.1832 21.9922 20.0583 21.9922 19.928V15.2137C21.9922 14.9012 21.868 14.6014 21.647 14.3804C21.426 14.1593 21.1262 14.0352 20.8136 14.0352C20.501 14.0352 20.2013 14.1593 19.9802 14.3804C19.7592 14.6014 19.635 14.9012 19.635 15.2137V19.928C19.635 20.0583 19.5833 20.1832 19.4912 20.2753C19.3991 20.3673 19.2742 20.4191 19.144 20.4191C19.0137 20.4191 18.8888 20.3673 18.7967 20.2753C18.7046 20.1832 18.6529 20.0583 18.6529 19.928V14.7227C18.6529 14.5679 18.6224 14.4146 18.5632 14.2716C18.504 14.1286 18.4171 13.9987 18.3077 13.8893C18.1983 13.7798 18.0683 13.693 17.9254 13.6338C17.7824 13.5746 17.6291 13.5441 17.4743 13.5441C17.1618 13.5441 16.862 13.6683 16.641 13.8893C16.4199 14.1103 16.2958 14.4101 16.2958 14.7227V19.928C16.2958 20.0583 16.244 20.1832 16.1519 20.2753C16.0598 20.3673 15.9349 20.4191 15.8047 20.4191C15.6744 20.4191 15.5495 20.3673 15.4574 20.2753C15.3654 20.1832 15.3136 20.0583 15.3136 19.928V10.7941C15.3136 10.4815 15.1894 10.1817 14.9684 9.96071C14.7474 9.73968 14.4476 9.61551 14.135 9.61551C13.8225 9.61551 13.5227 9.73968 13.3017 9.96071C13.0806 10.1817 12.9565 10.4815 12.9565 10.7941V23.3655C12.9565 23.4958 12.9047 23.6207 12.8126 23.7128C12.7205 23.8048 12.5956 23.8566 12.4654 23.8566C12.3352 23.8566 12.2103 23.8048 12.1182 23.7128C12.0261 23.6207 11.9743 23.4958 11.9743 23.3655V18.2093C11.9743 18.0139 11.8967 17.8265 11.7586 17.6884C11.6204 17.5503 11.4331 17.4727 11.2377 17.4727C10.8079 17.4727 10.3957 17.6434 10.0918 17.9473C9.78792 18.2512 9.61719 18.6634 9.61719 19.0932V25.3298C9.61917 26.1258 9.79616 26.9117 10.1356 27.6318C10.4751 28.3518 10.9687 28.9884 11.5815 29.4965V30.7316C11.5815 30.8618 11.6332 30.9867 11.7253 31.0788C11.8174 31.1709 11.9423 31.2227 12.0725 31.2227H22.8761C23.0064 31.2227 23.1313 31.1709 23.2234 31.0788C23.3154 30.9867 23.3672 30.8618 23.3672 30.7316V29.4965C23.98 28.9884 24.4736 28.3518 24.8131 27.6318C25.1525 26.9117 25.3295 26.1258 25.3315 25.3298V16.1959C25.3315 15.8833 25.2073 15.5835 24.9863 15.3625C24.7653 15.1415 24.4655 15.0173 24.1529 15.0173Z" fill="black"/>
<path id="Vector_2" d="M21.8973 0.775391H10.1116C8.54872 0.775391 7.04985 1.39624 5.94473 2.50137C4.8396 3.60649 4.21875 5.10536 4.21875 6.66825C4.21875 8.23113 4.8396 9.73 5.94473 10.8351C7.04985 11.9403 8.54872 12.5611 10.1116 12.5611H11.9777V10.7932C11.9791 10.2762 12.1661 9.77686 12.5047 9.38614C12.8433 8.99541 13.311 8.73931 13.8226 8.66445C13.8073 8.57267 13.798 8.47999 13.7946 8.387V3.23075C13.7946 3.10051 13.8464 2.9756 13.9385 2.88351C14.0306 2.79141 14.1555 2.73968 14.2857 2.73968C14.416 2.73968 14.5409 2.79141 14.633 2.88351C14.725 2.9756 14.7768 3.10051 14.7768 3.23075V8.387C14.7785 8.5138 14.8001 8.63956 14.8406 8.75972C15.2911 8.91358 15.6781 9.21188 15.9416 9.60829C15.9627 9.60829 15.9829 9.61468 16.0045 9.61468C16.3301 9.61468 16.6423 9.48533 16.8726 9.2551C17.1028 9.02486 17.2321 8.7126 17.2321 8.387V3.23075C17.2321 3.10051 17.2839 2.9756 17.376 2.88351C17.4681 2.79141 17.593 2.73968 17.7232 2.73968C17.8535 2.73968 17.9784 2.79141 18.0705 2.88351C18.1625 2.9756 18.2143 3.10051 18.2143 3.23075V8.387C18.2127 8.92449 18.0149 9.44291 17.6579 9.84478C17.301 10.2467 16.8096 10.5043 16.276 10.5693C16.2877 10.6435 16.2954 10.7182 16.2991 10.7932V12.5611H21.8973C23.4602 12.5611 24.9591 11.9403 26.0642 10.8351C27.1693 9.73 27.7902 8.23113 27.7902 6.66825C27.7902 5.10536 27.1693 3.60649 26.0642 2.50137C24.9591 1.39624 23.4602 0.775391 21.8973 0.775391ZM10.1116 6.17718C10.5487 6.17718 10.9759 6.30678 11.3393 6.5496C11.7027 6.79242 11.986 7.13754 12.1532 7.54134C12.3205 7.94513 12.3642 8.38945 12.279 8.81811C12.1937 9.24677 11.9832 9.64053 11.6742 9.94958C11.3651 10.2586 10.9714 10.4691 10.5427 10.5544C10.1141 10.6396 9.66974 10.5959 9.26594 10.4286C8.86215 10.2613 8.51703 9.97811 8.27421 9.61471C8.03139 9.2513 7.90179 8.82406 7.90179 8.387C7.90179 8.25676 7.95352 8.13185 8.04562 8.03976C8.13771 7.94766 8.26262 7.89593 8.39286 7.89593C8.5231 7.89593 8.648 7.94766 8.7401 8.03976C8.83219 8.13185 8.88393 8.25676 8.88393 8.387C8.88393 8.62981 8.95593 8.86717 9.09083 9.06906C9.22573 9.27095 9.41747 9.4283 9.64179 9.52122C9.86612 9.61414 10.113 9.63846 10.3511 9.59109C10.5893 9.54372 10.808 9.42679 10.9797 9.2551C11.1514 9.0834 11.2683 8.86465 11.3157 8.62651C11.3631 8.38836 11.3388 8.14151 11.2458 7.91718C11.1529 7.69286 10.9956 7.50112 10.7937 7.36622C10.5918 7.23132 10.3544 7.15932 10.1116 7.15932C9.67455 7.15932 9.2473 7.02971 8.8839 6.7869C8.52049 6.54408 8.23725 6.19895 8.07 5.79516C7.90274 5.39137 7.85898 4.94705 7.94425 4.51838C8.02951 4.08972 8.23998 3.69597 8.54903 3.38692C8.85808 3.07787 9.25183 2.8674 9.68049 2.78214C10.1092 2.69687 10.5535 2.74063 10.9573 2.90789C11.3611 3.07515 11.7062 3.35838 11.949 3.72179C12.1918 4.08519 12.3214 4.51244 12.3214 4.9495C12.3214 5.07974 12.2697 5.20464 12.1776 5.29674C12.0855 5.38883 11.9606 5.44057 11.8304 5.44057C11.7001 5.44057 11.5752 5.38883 11.4831 5.29674C11.391 5.20464 11.3393 5.07974 11.3393 4.9495C11.3393 4.70669 11.2673 4.46933 11.1324 4.26744C10.9975 4.06555 10.8057 3.90819 10.5814 3.81527C10.3571 3.72235 10.1102 3.69804 9.8721 3.74541C9.63395 3.79278 9.4152 3.9097 9.24351 4.0814C9.07181 4.25309 8.95489 4.47184 8.90752 4.70999C8.86015 4.94814 8.88446 5.19498 8.97738 5.41931C9.0703 5.64364 9.22765 5.83538 9.42954 5.97027C9.63144 6.10517 9.86879 6.17718 10.1116 6.17718ZM24.1071 8.387C24.1065 8.97288 23.8735 9.53458 23.4592 9.94886C23.0449 10.3631 22.4832 10.5962 21.8973 10.5968H20.1786C20.0483 10.5968 19.9234 10.5451 19.8313 10.453C19.7392 10.3609 19.6875 10.236 19.6875 10.1057V3.23075C19.6875 3.10051 19.7392 2.9756 19.8313 2.88351C19.9234 2.79141 20.0483 2.73968 20.1786 2.73968H21.8973C22.3555 2.73764 22.8028 2.87866 23.177 3.14307C23.5512 3.40747 23.8335 3.78207 23.9845 4.2146C24.1356 4.64714 24.1479 5.11604 24.0197 5.55589C23.8915 5.99574 23.6292 6.38461 23.2694 6.66825C23.5294 6.87314 23.7399 7.13414 23.8849 7.43175C24.03 7.72937 24.106 8.05591 24.1071 8.387Z" fill="black"/>
</g>
</g>
<defs>
<clipPath id="clip0_2004_24542">
<rect width="31.4286" height="31.4286" fill="white" transform="translate(0.289062 0.285156)"/>
</clipPath>
</defs>
</svg>
