<svg width="288" height="252" viewBox="0 0 288 252" fill="none" xmlns="http://www.w3.org/2000/svg">
<g clip-path="url(#clip0_2410_31347)">
<path d="M136.948 29.0537C172.542 33.0349 188.164 2.17686 223.44 6.21726C254.919 9.82106 276.631 32.2505 269.283 62.4573C262.756 89.2749 231.683 97.6887 220.635 122.812C208.921 149.452 199.841 178.156 164.469 187.428C95.0201 205.632 61.2835 120.177 56.5549 71.0931C54.7419 52.2527 51.5747 7.20886 76.1723 1.37766C100.925 -4.49794 115.141 26.6117 136.948 29.0537Z" fill="black"/>
<path opacity="0.9" d="M136.948 29.0537C172.542 33.0349 188.164 2.17686 223.44 6.21726C254.919 9.82106 276.631 32.2505 269.283 62.4573C262.756 89.2749 231.683 97.6887 220.635 122.812C208.921 149.452 199.841 178.156 164.469 187.428C95.0201 205.632 61.2835 120.177 56.5549 71.0931C54.7419 52.2527 51.5747 7.20886 76.1723 1.37766C100.925 -4.49794 115.141 26.6117 136.948 29.0537Z" fill="white"/>
<path d="M143.998 251.394C223.239 251.394 287.477 247.644 287.477 243.017C287.477 238.391 223.239 234.641 143.998 234.641C64.7571 234.641 0.519531 238.391 0.519531 243.017C0.519531 247.644 64.7571 251.394 143.998 251.394Z" fill="#F5F5F5"/>
<path d="M36.0467 84.7457L35.3086 84.7988L36.2916 98.4461L37.0297 98.3929L36.0467 84.7457Z" fill="black"/>
<path d="M37.5311 105.439L36.793 105.492L37.163 110.629L37.9011 110.576L37.5311 105.439Z" fill="black"/>
<path d="M208.904 168.219H50.4257C48.6616 168.187 46.9717 167.503 45.6818 166.3C44.3919 165.096 43.5934 163.457 43.4401 161.699L35.6553 53.5632C35.5829 52.7293 35.686 51.8894 35.9579 51.0977C36.2298 50.306 36.6645 49.58 37.2341 48.9665C37.8036 48.3531 38.4954 47.8657 39.2647 47.5358C40.0341 47.2059 40.864 47.0409 41.7011 47.0512H200.179C201.942 47.0828 203.631 47.7654 204.921 48.9677C206.211 50.17 207.01 51.8069 207.165 53.5632L214.95 161.699C215.022 162.534 214.919 163.374 214.647 164.166C214.375 164.958 213.941 165.685 213.371 166.299C212.802 166.913 212.11 167.401 211.341 167.731C210.572 168.062 209.741 168.228 208.904 168.219Z" fill="black"/>
<path d="M209.513 168.219H51.0351C49.271 168.187 47.5811 167.503 46.2912 166.3C45.0013 165.096 44.2027 163.457 44.0495 161.699L36.2647 53.5632C36.1922 52.7293 36.2953 51.8894 36.5672 51.0977C36.8392 50.306 37.2739 49.58 37.8435 48.9665C38.413 48.3531 39.1048 47.8657 39.8741 47.5358C40.6435 47.2059 41.4734 47.0409 42.3105 47.0512H200.789C202.552 47.0828 204.241 47.7654 205.53 48.9677C206.82 50.17 207.619 51.8069 207.774 53.5632L215.559 161.699C215.633 162.534 215.531 163.375 215.259 164.167C214.988 164.96 214.553 165.687 213.983 166.301C213.414 166.915 212.722 167.403 211.952 167.734C211.182 168.064 210.351 168.229 209.513 168.219Z" fill="black"/>
<path opacity="0.5" d="M209.513 168.219H51.0351C49.271 168.187 47.5811 167.503 46.2912 166.3C45.0013 165.096 44.2027 163.457 44.0495 161.699L36.2647 53.5632C36.1922 52.7293 36.2953 51.8894 36.5672 51.0977C36.8392 50.306 37.2739 49.58 37.8435 48.9665C38.413 48.3531 39.1048 47.8657 39.8741 47.5358C40.6435 47.2059 41.4734 47.0409 42.3105 47.0512H200.789C202.552 47.0828 204.241 47.7654 205.53 48.9677C206.82 50.17 207.619 51.8069 207.774 53.5632L215.559 161.699C215.633 162.534 215.531 163.375 215.259 164.167C214.988 164.96 214.553 165.687 213.983 166.301C213.414 166.915 212.722 167.403 211.952 167.734C211.182 168.064 210.351 168.229 209.513 168.219Z" fill="white"/>
<path d="M201.024 50.3066H42.5458H42.013C37.9652 50.6396 38.794 56.8038 42.8788 56.8038H201.624C205.716 56.8038 205.657 50.6396 201.557 50.3066H201.024Z" fill="black"/>
<path d="M46.6738 53.5641C46.6894 53.7549 46.6647 53.9468 46.6015 54.1275C46.5383 54.3081 46.4379 54.4736 46.3068 54.613C46.1757 54.7525 46.0168 54.8629 45.8404 54.9372C45.664 55.0114 45.474 55.0479 45.2826 55.0441C44.8804 55.0385 44.4945 54.8841 44.1994 54.6108C43.9043 54.3376 43.7207 53.9647 43.6842 53.5641C43.6687 53.374 43.6931 53.1827 43.7559 53.0025C43.8187 52.8224 43.9184 52.6573 44.0487 52.518C44.179 52.3786 44.337 52.2681 44.5125 52.1934C44.688 52.1186 44.8772 52.0814 45.068 52.0841C45.4715 52.088 45.8592 52.2415 46.1559 52.5149C46.4526 52.7884 46.6371 53.1623 46.6738 53.5641Z" fill="#FAFAFA"/>
<path d="M51.7597 53.5641C51.7753 53.7549 51.7507 53.9468 51.6875 54.1275C51.6243 54.3081 51.5239 54.4736 51.3928 54.613C51.2617 54.7525 51.1028 54.8629 50.9264 54.9372C50.7499 55.0114 50.5599 55.0479 50.3685 55.0441C49.9664 55.0385 49.5805 54.8841 49.2853 54.6108C48.9902 54.3376 48.8067 53.9647 48.7701 53.5641C48.7547 53.374 48.7791 53.1827 48.8419 53.0025C48.9046 52.8224 49.0044 52.6573 49.1346 52.518C49.2649 52.3786 49.4229 52.2681 49.5984 52.1934C49.774 52.1186 49.9632 52.0814 50.1539 52.0841C50.5574 52.088 50.9451 52.2415 51.2418 52.5149C51.5385 52.7884 51.7231 53.1623 51.7597 53.5641Z" fill="#FAFAFA"/>
<path d="M56.8311 53.5643C56.8466 53.7544 56.8222 53.9457 56.7594 54.1258C56.6967 54.306 56.5969 54.471 56.4666 54.6104C56.3363 54.7497 56.1784 54.8603 56.0028 54.935C55.8273 55.0097 55.6381 55.047 55.4473 55.0443C55.0446 55.0403 54.6579 54.8865 54.3624 54.6129C54.0669 54.3393 53.8838 53.9655 53.8489 53.5643C53.8323 53.3739 53.8559 53.1821 53.9182 53.0014C53.9806 52.8208 54.0803 52.6553 54.2108 52.5157C54.3413 52.376 54.4998 52.2655 54.6758 52.1912C54.8519 52.1168 55.0417 52.0804 55.2327 52.0843C55.6349 52.0899 56.0208 52.2443 56.3159 52.5175C56.6111 52.7908 56.7946 53.1637 56.8311 53.5643Z" fill="#FAFAFA"/>
<path d="M205.307 157.431H53.7185C53.0781 157.42 52.4646 157.172 51.9969 156.734C51.5292 156.297 51.2408 155.701 51.1877 155.063L44.7867 66.1371C44.7582 65.8319 44.795 65.5242 44.8945 65.2343C44.994 64.9445 45.1541 64.6791 45.3641 64.4559C45.574 64.2326 45.8291 64.0566 46.1123 63.9394C46.3955 63.8223 46.7004 63.7668 47.0067 63.7765H198.633C199.272 63.7853 199.886 64.0319 200.354 64.4683C200.822 64.9046 201.11 65.4995 201.163 66.1371L207.572 155.063C207.6 155.372 207.561 155.683 207.458 155.976C207.356 156.269 207.192 156.537 206.977 156.761C206.763 156.985 206.503 157.161 206.215 157.277C205.927 157.392 205.618 157.445 205.307 157.431Z" fill="white"/>
<path d="M141.431 123.553L138.96 89.2765L131.486 84.7773H110.906L113.703 123.553H141.431Z" fill="white"/>
<path d="M141.428 123.908H113.7C113.608 123.91 113.519 123.876 113.452 123.814C113.384 123.752 113.343 123.666 113.338 123.575L110.548 84.7989C110.544 84.7502 110.551 84.7013 110.568 84.6554C110.584 84.6095 110.61 84.5676 110.644 84.5325C110.677 84.4959 110.717 84.4665 110.761 84.4462C110.806 84.4258 110.854 84.4149 110.903 84.4141H131.482C131.547 84.4163 131.611 84.4341 131.667 84.4659L139.141 88.9651C139.192 88.9939 139.234 89.0346 139.265 89.0836C139.296 89.1326 139.315 89.1885 139.319 89.2463L141.776 123.523C141.781 123.573 141.775 123.623 141.758 123.671C141.742 123.718 141.715 123.761 141.68 123.797C141.647 123.832 141.608 123.859 141.565 123.878C141.522 123.897 141.475 123.907 141.428 123.908ZM114.048 123.168H141.036L138.609 89.4609L131.416 85.1319H111.288L114.048 123.168Z" fill="black"/>
<path d="M138.962 89.2765L131.488 84.7773L134.234 90.7418L138.962 89.2765Z" fill="#EBEBEB"/>
<path d="M134.229 91.0962C134.161 91.0959 134.094 91.0762 134.037 91.0396C133.979 91.0029 133.933 90.9507 133.904 90.889L131.158 84.9246C131.126 84.8546 131.117 84.7763 131.132 84.7007C131.146 84.6251 131.184 84.5559 131.24 84.5028C131.299 84.4526 131.372 84.4221 131.449 84.4154C131.526 84.4088 131.603 84.4264 131.669 84.4658L139.143 88.965C139.203 89.0012 139.252 89.0539 139.284 89.1168C139.315 89.1797 139.328 89.2503 139.321 89.3202C139.311 89.3884 139.282 89.4524 139.238 89.5048C139.193 89.5572 139.135 89.5958 139.069 89.6162L134.333 91.0962H134.229ZM132.298 85.6794L134.422 90.3044L138.122 89.1722L132.298 85.6794Z" fill="black"/>
<path d="M122.538 102.24C122.549 102.441 122.519 102.642 122.449 102.831C122.38 103.02 122.273 103.193 122.134 103.339C121.995 103.485 121.828 103.602 121.643 103.681C121.458 103.761 121.259 103.801 121.058 103.801C120.635 103.793 120.23 103.63 119.922 103.341C119.613 103.053 119.422 102.661 119.385 102.24C119.366 102.036 119.391 101.831 119.457 101.638C119.523 101.445 119.63 101.269 119.77 101.12C119.91 100.972 120.08 100.855 120.269 100.777C120.458 100.7 120.661 100.664 120.865 100.671C121.288 100.68 121.693 100.846 122.002 101.135C122.31 101.425 122.501 101.818 122.538 102.24Z" fill="black"/>
<path d="M132.678 102.241C132.696 102.443 132.671 102.647 132.604 102.84C132.537 103.032 132.43 103.207 132.29 103.355C132.15 103.503 131.98 103.619 131.792 103.696C131.604 103.773 131.401 103.809 131.198 103.802C130.775 103.795 130.369 103.631 130.059 103.343C129.749 103.055 129.557 102.662 129.518 102.241C129.506 102.039 129.535 101.837 129.604 101.647C129.673 101.457 129.78 101.283 129.919 101.136C130.058 100.989 130.225 100.872 130.411 100.792C130.596 100.713 130.796 100.672 130.998 100.672C131.423 100.678 131.831 100.842 132.141 101.132C132.452 101.422 132.643 101.817 132.678 102.241Z" fill="black"/>
<path d="M135.547 112.407C135.457 112.406 135.371 112.371 135.305 112.309C135.239 112.248 135.199 112.164 135.192 112.074C135.007 109.551 131.055 107.501 126.386 107.501C123.285 107.501 120.503 108.426 119.126 109.906C118.843 110.179 118.622 110.508 118.477 110.873C118.331 111.238 118.265 111.63 118.283 112.022C118.286 112.071 118.28 112.12 118.264 112.166C118.249 112.212 118.225 112.255 118.193 112.292C118.128 112.366 118.037 112.411 117.939 112.418C117.84 112.425 117.744 112.393 117.669 112.328C117.595 112.264 117.549 112.172 117.543 112.074C117.521 111.584 117.601 111.094 117.78 110.636C117.958 110.179 118.23 109.764 118.579 109.418C120.059 107.797 123.07 106.783 126.363 106.783C131.492 106.783 135.673 109.085 135.88 112.022C135.883 112.069 135.877 112.116 135.861 112.16C135.846 112.204 135.823 112.245 135.792 112.28C135.761 112.315 135.723 112.344 135.681 112.364C135.639 112.385 135.593 112.397 135.547 112.4V112.407Z" fill="black"/>
<path d="M116.748 99.0728C116.657 99.071 116.571 99.0369 116.504 98.9766C116.436 98.9087 116.398 98.8169 116.398 98.7213C116.398 98.6257 116.436 98.5339 116.504 98.466L118.08 96.7714C118.147 96.7063 118.238 96.6699 118.331 96.6699C118.425 96.6699 118.515 96.7063 118.583 96.7714C118.616 96.8044 118.642 96.8436 118.66 96.8868C118.678 96.93 118.687 96.9763 118.687 97.023C118.687 97.0698 118.678 97.1161 118.66 97.1592C118.642 97.2024 118.616 97.2416 118.583 97.2746L117.007 98.9692C116.973 99.0031 116.932 99.0297 116.888 99.0475C116.843 99.0653 116.796 99.0739 116.748 99.0728Z" fill="black"/>
<path d="M134.81 99.0728C134.72 99.0686 134.634 99.0348 134.566 98.9766L132.753 97.282C132.719 97.2489 132.691 97.2092 132.673 97.1654C132.654 97.1215 132.645 97.0744 132.645 97.0267C132.645 96.9791 132.654 96.9319 132.673 96.8881C132.691 96.8442 132.719 96.8045 132.753 96.7714C132.82 96.7063 132.911 96.6699 133.004 96.6699C133.098 96.6699 133.188 96.7063 133.256 96.7714L135.069 98.466C135.102 98.499 135.128 98.5382 135.146 98.5814C135.164 98.6246 135.173 98.6709 135.173 98.7176C135.173 98.7644 135.164 98.8107 135.146 98.8538C135.128 98.897 135.102 98.9362 135.069 98.9692C134.999 99.0349 134.906 99.0719 134.81 99.0728Z" fill="black"/>
<path d="M220.734 63.0788C221.393 62.7458 222.214 62.3388 222.91 61.917C223.606 61.4952 224.39 61.0882 225.13 60.6442C226.573 59.7488 228.038 58.8682 229.422 57.8914C232.201 55.9897 234.806 53.8452 237.207 51.483C237.51 51.2018 237.777 50.891 238.065 50.5876L238.487 50.1362L238.694 49.9142L238.798 49.7958C238.694 49.9956 238.798 49.9364 238.798 49.744C238.863 49.4798 238.9 49.2094 238.909 48.9374C238.892 47.364 238.711 45.7966 238.369 44.2606C237.71 40.9454 236.711 37.5266 235.727 34.1818L238.598 32.9238C240.41 36.1329 241.924 39.5018 243.119 42.9878C243.791 44.8717 244.219 46.8339 244.392 48.8264C244.437 49.4459 244.418 50.0685 244.333 50.6838C244.223 51.554 243.914 52.3871 243.43 53.1184L243.304 53.2886L243.208 53.407L243.097 53.5476L242.868 53.8288L242.409 54.3838C242.106 54.7464 241.81 55.1238 241.484 55.4716C238.953 58.2798 236.13 60.8102 233.063 63.0196C231.583 64.1148 230.014 65.1656 228.408 66.1202C227.616 66.6012 226.81 67.06 225.988 67.5114C225.167 67.9628 224.368 68.3772 223.421 68.8212L220.734 63.0788Z" fill="#FFB573"/>
<path d="M214.149 237.051C214.703 237.037 215.254 236.962 215.792 236.829C215.819 236.82 215.844 236.805 215.863 236.784C215.883 236.764 215.896 236.738 215.903 236.71C215.907 236.682 215.902 236.653 215.89 236.627C215.879 236.601 215.86 236.579 215.836 236.562C215.622 236.422 213.742 235.208 213.017 235.534C212.937 235.571 212.868 235.629 212.817 235.702C212.766 235.775 212.736 235.86 212.728 235.948C212.699 236.088 212.707 236.232 212.749 236.368C212.792 236.504 212.869 236.627 212.973 236.725C213.312 236.972 213.73 237.088 214.149 237.051ZM215.37 236.622C214.297 236.836 213.483 236.799 213.15 236.511C213.083 236.442 213.035 236.359 213.009 236.267C212.983 236.175 212.981 236.078 213.002 235.985C213.005 235.946 213.018 235.908 213.04 235.876C213.062 235.843 213.092 235.817 213.128 235.8C213.52 235.63 214.608 236.178 215.37 236.622Z" fill="black"/>
<path d="M215.779 236.831H215.853C215.875 236.818 215.893 236.8 215.906 236.778C215.919 236.756 215.926 236.731 215.927 236.705C215.927 236.624 215.927 234.841 215.247 234.249C215.165 234.17 215.067 234.111 214.959 234.077C214.851 234.042 214.737 234.032 214.625 234.049C214.508 234.05 214.395 234.091 214.305 234.165C214.215 234.239 214.153 234.342 214.129 234.456C213.989 235.196 215.113 236.491 215.705 236.831C215.73 236.838 215.755 236.838 215.779 236.831ZM214.721 234.323C214.842 234.323 214.958 234.368 215.047 234.448C215.437 235.024 215.639 235.707 215.624 236.402C215.032 235.928 214.329 234.922 214.418 234.5C214.418 234.434 214.47 234.345 214.655 234.323H214.721Z" fill="black"/>
<path d="M215.205 44.5703C214.465 48.2703 212.985 55.6703 215.538 58.1493C215.538 58.1493 214.531 61.8493 207.701 61.8493C200.183 61.8493 204.112 58.1493 204.112 58.1493C208.212 57.1725 208.101 54.1311 207.39 51.2673L215.205 44.5703Z" fill="#FFB573"/>
<path d="M202.671 59.6285C201.494 59.7913 202.501 56.7351 202.974 56.4169C204.084 55.6769 218.411 54.6483 218.315 56.4169C218.255 57.1569 217.9 58.6369 217.279 59.1253C216.657 59.6137 212.972 58.0893 202.671 59.6285Z" fill="#263238"/>
<path d="M205.007 58.578C204.068 58.8962 204.156 55.8178 204.475 55.4478C205.215 54.5894 216.81 51.6146 217.151 53.2944C217.284 54.0344 217.351 55.5144 216.951 56.0398C216.551 56.5652 213.147 55.6994 205.007 58.578Z" fill="#263238"/>
<path d="M200.694 37.9381C200.648 37.9401 200.601 37.9311 200.559 37.9118C200.517 37.8926 200.479 37.8635 200.45 37.8271C200.224 37.5359 199.933 37.3018 199.6 37.1437C199.267 36.9856 198.902 36.9079 198.534 36.9169C198.495 36.922 198.456 36.9194 198.419 36.909C198.381 36.8987 198.346 36.8809 198.316 36.8567C198.285 36.8325 198.26 36.8025 198.242 36.7683C198.223 36.7341 198.212 36.6966 198.208 36.6579C198.202 36.5817 198.225 36.506 198.273 36.4467C198.322 36.3873 198.391 36.349 198.467 36.3397C198.933 36.3159 199.398 36.4051 199.821 36.5997C200.245 36.7942 200.616 37.0884 200.902 37.4571C200.951 37.5172 200.975 37.5943 200.968 37.6719C200.961 37.7495 200.924 37.8212 200.865 37.8715C200.814 37.9076 200.756 37.9305 200.694 37.9381Z" fill="#263238"/>
<path d="M199.261 41.5586C198.926 42.7391 198.427 43.8673 197.781 44.9108C198.053 45.0668 198.355 45.1616 198.667 45.1884C198.979 45.2153 199.293 45.1736 199.587 45.0662L199.261 41.5586Z" fill="#FF5652"/>
<path d="M199.62 40.6636C199.672 41.1594 199.442 41.5886 199.117 41.6182C198.791 41.6478 198.488 41.2778 198.443 40.7746C198.399 40.2714 198.621 39.8496 198.939 39.82C199.257 39.7904 199.568 40.1604 199.62 40.6636Z" fill="#263238"/>
<path d="M199.088 39.8349L197.859 39.6055C197.859 39.6055 198.562 40.4787 199.088 39.8349Z" fill="#263238"/>
<path d="M222.963 236.69H216.762L217.25 222.334H223.451L222.963 236.69Z" fill="#FFB573"/>
<path d="M216.274 235.971H223.237C223.357 235.968 223.474 236.009 223.566 236.087C223.657 236.165 223.717 236.274 223.733 236.393L224.525 241.898C224.54 242.037 224.526 242.178 224.484 242.312C224.441 242.445 224.37 242.568 224.277 242.672C224.183 242.777 224.068 242.86 223.94 242.916C223.812 242.973 223.673 243.002 223.533 243.001C221.106 242.964 219.937 242.816 216.873 242.816C214.986 242.816 212.233 243.016 209.636 243.016C207.039 243.016 206.891 240.44 207.978 240.211C212.833 239.16 213.602 237.725 215.238 236.348C215.529 236.106 215.895 235.973 216.274 235.971Z" fill="#263238"/>
<g opacity="0.2">
<path d="M223.449 222.334H217.248L216.996 229.734H223.197L223.449 222.334Z" fill="black"/>
</g>
<path d="M198.297 66.7202C194.502 65.2448 190.785 63.5777 187.16 61.7252C183.415 59.8955 179.848 57.7229 176.504 55.2354C175.61 54.5356 174.765 53.7766 173.973 52.9636C173.766 52.7416 173.558 52.5344 173.359 52.2754C173.124 52.0107 172.907 51.7314 172.707 51.4392C172.162 50.6442 171.821 49.7264 171.716 48.7678C171.634 47.859 171.758 46.9434 172.078 46.089C172.335 45.4022 172.686 44.7546 173.122 44.165C173.837 43.1875 174.68 42.3113 175.63 41.5602C177.307 40.2251 179.117 39.067 181.032 38.1044C181.95 37.616 182.882 37.1794 183.83 36.7724C184.777 36.3654 185.709 35.9806 186.723 35.6328L188.033 38.4818C184.806 40.5168 181.462 42.759 179.005 45.2602C178.455 45.8173 177.971 46.4356 177.562 47.1028C177.207 47.6874 177.214 48.124 177.273 48.087C177.332 48.05 177.273 48.087 177.377 48.161L177.673 48.4792C177.784 48.6124 177.939 48.7456 178.08 48.8862C178.707 49.4631 179.372 49.9971 180.07 50.4846C181.598 51.5662 183.189 52.5546 184.836 53.4446C186.501 54.377 188.218 55.2576 189.964 56.1012C193.457 57.7736 197.068 59.3794 200.613 60.8446L198.297 66.7202Z" fill="#FFB573"/>
<path d="M189.884 36.4907L190.905 34.2707L186.228 32.6797C186.228 32.6797 184.748 37.0531 186.502 39.0659C187.235 38.9505 187.928 38.6547 188.518 38.2052C189.108 37.7557 189.578 37.1665 189.884 36.4907Z" fill="#FFB573"/>
<path d="M190.881 29.4671L187.159 28.3867L186.227 32.6491L190.881 34.2697V29.4671Z" fill="#FFB573"/>
<path d="M238.986 34.4847L239.526 29.3047L234.731 30.4591C234.731 30.4591 234.657 35.3283 237.195 36.0979L238.986 34.4847Z" fill="#FFB573"/>
<path d="M237.212 25.6562L234.082 27.1141L234.726 30.4218L239.521 29.2896L237.212 25.6562Z" fill="#FFB573"/>
<path d="M216.183 37.304C216.412 43.4534 216.634 46.0508 213.859 49.4918C209.678 54.6717 202.078 53.5988 200.021 47.6418C198.171 42.2842 198.112 33.1304 203.854 30.1112C205.117 29.4399 206.53 29.1023 207.96 29.1305C209.389 29.1587 210.788 29.5518 212.023 30.2723C213.258 30.9929 214.288 32.0171 215.016 33.2477C215.744 34.4783 216.146 35.8746 216.183 37.304Z" fill="#FFB573"/>
<path d="M213.504 49.4837C219.542 46.8715 223.509 41.3437 221.836 32.7745C220.23 24.5531 214.681 23.7391 212.387 25.4411C210.093 27.1431 204.372 24.6049 200.939 27.4909C195.019 32.5007 200.613 37.8509 203.543 41.0847C205.29 44.6811 207.584 52.0367 213.504 49.4837Z" fill="#263238"/>
<path d="M210.996 31.3007C211.732 32.2456 212.729 32.9542 213.864 33.3389C214.999 33.7236 216.221 33.7676 217.381 33.4655C218.54 33.1634 219.586 32.5284 220.388 31.6389C221.191 30.7494 221.716 29.6443 221.897 28.46C222.079 27.2758 221.91 26.0642 221.411 24.9749C220.912 23.8856 220.106 22.9661 219.09 22.3302C218.075 21.6942 216.895 21.3694 215.698 21.396C214.5 21.4227 213.336 21.7994 212.35 22.4799C211.001 23.4703 210.101 24.9559 209.847 26.61C209.593 28.264 210.006 29.9512 210.996 31.3007Z" fill="black"/>
<path d="M212.564 26.0186C211.698 21.0606 216.383 17.2422 222.658 19.0848C228.933 20.9274 225.618 26.4848 224.323 30.9248C223.028 35.3648 226.417 39.5976 227.823 36.2158C229.229 32.834 226.861 31.7758 226.861 31.7758C226.861 31.7758 233.521 33.5 227.335 41.011C221.148 48.522 215.546 40.2266 217.063 35.3352C218.292 31.4058 213.386 30.7028 212.564 26.0186Z" fill="#263238"/>
<path d="M206.295 27.8914C203.432 26.4114 198.585 25.1904 195.824 29.8376C194.522 32.0576 195.025 35.0176 195.025 35.0176L203.454 35.5726L206.295 27.8914Z" fill="#263238"/>
<path d="M194.033 33.5507C193.984 33.5469 193.937 33.524 193.904 33.4867C193.871 33.4494 193.854 33.4007 193.856 33.3509C193.856 33.2251 194.07 30.2503 195.868 28.3855C200.212 23.8715 205.303 27.6455 206.754 28.8665C206.785 28.8995 206.803 28.9429 206.804 28.9883C206.806 29.0337 206.79 29.078 206.761 29.1128C206.732 29.1475 206.691 29.1703 206.646 29.1768C206.601 29.1832 206.555 29.1729 206.517 29.1477C205.118 27.9489 200.249 24.3599 196.157 28.6371C194.455 30.4057 194.248 33.3435 194.248 33.3731C194.247 33.3995 194.241 33.4254 194.229 33.4491C194.218 33.4728 194.201 33.4938 194.181 33.5106C194.161 33.5274 194.137 33.5397 194.111 33.5466C194.086 33.5535 194.059 33.5549 194.033 33.5507Z" fill="#263238"/>
<path d="M204.574 40.819C204.541 41.9832 204.11 43.1009 203.353 43.9862C202.332 45.185 201.133 44.593 200.889 43.2462C200.645 42.0548 200.889 39.9902 202.177 39.2724C203.464 38.5546 204.589 39.4722 204.574 40.819Z" fill="#FFB573"/>
<path d="M203.238 97.1484C203.238 97.1484 203.638 140.179 207.367 164.155C210.387 183.521 215.959 228.306 215.959 228.306H224.417C224.417 228.306 225.238 185.068 223.677 165.917C219.807 117.447 229.804 108.382 221.738 97.1484H203.238Z" fill="#263238"/>
<path opacity="0.1" d="M203.238 97.1484C203.238 97.1484 203.638 140.179 207.367 164.155C210.387 183.521 215.959 228.306 215.959 228.306H224.417C224.417 228.306 225.238 185.068 223.677 165.917C219.807 117.447 229.804 108.382 221.738 97.1484H203.238Z" fill="white"/>
<path opacity="0.3" d="M207.689 116.669C210.649 129.656 208.289 150.11 206.668 159.116C204.951 145.441 204.085 127.718 203.656 114.716C205.188 112.244 206.638 112.081 207.689 116.669Z" fill="black"/>
<path d="M214.805 228.467H225.572L226.135 224.693L214.746 224.309L214.805 228.467Z" fill="black"/>
<path d="M217.878 60.7982C218.892 58.7854 224.338 57.52 227.313 57.5274L229.533 67.4138C229.533 67.4138 223.613 76.2124 221.141 75.28C218.233 74.207 215.71 65.142 217.878 60.7982Z" fill="black"/>
<path opacity="0.4" d="M217.878 60.7982C218.892 58.7854 224.338 57.52 227.313 57.5274L229.533 67.4138C229.533 67.4138 223.613 76.2124 221.141 75.28C218.233 74.207 215.71 65.142 217.878 60.7982Z" fill="black"/>
<path d="M211.599 226.048C211.612 226.027 211.618 226.002 211.618 225.978C211.618 225.953 211.612 225.929 211.599 225.907C211.585 225.879 211.563 225.856 211.535 225.841C211.507 225.826 211.475 225.821 211.444 225.826C211.133 225.878 208.395 226.307 208.025 227.091C207.986 227.163 207.965 227.243 207.965 227.324C207.965 227.406 207.986 227.486 208.025 227.558C208.089 227.675 208.18 227.774 208.291 227.848C208.402 227.921 208.529 227.966 208.662 227.979C209.557 228.068 210.882 226.825 211.548 226.07L211.599 226.048ZM208.314 227.188C208.565 226.773 209.986 226.388 211.067 226.189C210.09 227.18 209.231 227.735 208.728 227.669C208.641 227.66 208.558 227.63 208.485 227.58C208.413 227.531 208.354 227.465 208.314 227.387C208.297 227.359 208.289 227.327 208.289 227.295C208.289 227.262 208.297 227.23 208.314 227.202C208.314 227.202 208.306 227.195 208.314 227.188Z" fill="black"/>
<path d="M211.604 226.048C211.616 226.026 211.622 226.002 211.622 225.977C211.622 225.953 211.616 225.928 211.604 225.907C211.559 225.855 210.464 224.59 209.45 224.523C209.304 224.511 209.157 224.529 209.018 224.576C208.88 224.623 208.752 224.698 208.644 224.797C208.34 225.071 208.37 225.308 208.444 225.456C208.762 226.092 210.73 226.314 211.522 226.144C211.543 226.136 211.561 226.123 211.575 226.106C211.589 226.089 211.599 226.069 211.604 226.048ZM208.71 225.115C208.743 225.065 208.783 225.02 208.829 224.982C208.906 224.909 208.998 224.853 209.099 224.818C209.2 224.784 209.307 224.772 209.413 224.782C210.102 224.952 210.72 225.332 211.182 225.87C210.301 225.944 208.88 225.678 208.688 225.293C208.676 225.264 208.671 225.232 208.675 225.201C208.679 225.17 208.691 225.14 208.71 225.115Z" fill="black"/>
<path d="M218.06 223.421L212.392 225.945L209.868 220.683L206.568 213.801L206.176 213.002L211.844 210.479L212.281 211.381L215.478 218.049L218.06 223.421Z" fill="#FFB573"/>
<path opacity="0.2" d="M215.48 218.05L209.871 220.685L206.57 213.803L212.283 211.383L215.48 218.05Z" fill="black"/>
<path d="M196.595 97.1484C196.595 97.1484 178.488 142.2 183.394 163.364C187.834 182.522 207.444 218.804 207.444 218.804L215.044 215.001C215.044 215.001 202.915 171.2 201.605 161.684C199.045 143.184 215.495 117.04 215.495 97.1484H196.595Z" fill="#263238"/>
<path opacity="0.1" d="M196.595 97.1484C196.595 97.1484 178.488 142.2 183.394 163.364C187.834 182.522 207.444 218.804 207.444 218.804L215.044 215.001C215.044 215.001 202.915 171.2 201.605 161.684C199.045 143.184 215.495 117.04 215.495 97.1484H196.595Z" fill="white"/>
<path d="M211.387 225.153L217.011 221.061C217.106 220.987 217.225 220.95 217.345 220.958C217.466 220.966 217.579 221.019 217.663 221.105L221.548 225.094C221.642 225.198 221.713 225.321 221.757 225.454C221.8 225.588 221.815 225.729 221.8 225.868C221.786 226.008 221.742 226.143 221.671 226.265C221.601 226.386 221.506 226.491 221.392 226.574C219.402 227.965 218.373 228.542 215.901 230.34C214.377 231.45 211.343 233.9 209.241 235.432C207.14 236.963 205.541 234.965 206.281 234.144C209.597 230.444 210.292 228.15 210.81 226.071C210.89 225.707 211.094 225.383 211.387 225.153Z" fill="#263238"/>
<path d="M206.954 220.409L216.744 215.932L215.494 211.943L205.008 216.724L206.954 220.409Z" fill="black"/>
<path d="M201.397 60.3245C200.59 58.2229 193.516 55.8845 189.964 55.1445L188.402 66.7773C188.402 66.7773 194.204 75.1097 196.742 74.4215C199.747 73.6075 203.143 64.8311 201.397 60.3245Z" fill="black"/>
<path opacity="0.4" d="M201.397 60.3245C200.59 58.2229 193.516 55.8845 189.964 55.1445L188.402 66.7773C188.402 66.7773 194.204 75.1097 196.742 74.4215C199.747 73.6075 203.143 64.8311 201.397 60.3245Z" fill="black"/>
<path d="M193.635 59.74C193.635 59.74 190.675 60.7759 196.595 97.1469H221.755C221.333 86.9053 221.318 80.5858 226.195 59.555C222.669 58.8275 219.095 58.3576 215.502 58.1489C211.698 57.8748 207.88 57.8748 204.076 58.1489C199.199 58.5781 193.635 59.74 193.635 59.74Z" fill="black"/>
<path opacity="0.4" d="M193.635 59.74C193.635 59.74 190.675 60.7759 196.595 97.1469H221.755C221.333 86.9053 221.318 80.5858 226.195 59.555C222.669 58.8275 219.095 58.3576 215.502 58.1489C211.698 57.8748 207.88 57.8748 204.076 58.1489C199.199 58.5781 193.635 59.74 193.635 59.74Z" fill="black"/>
<path d="M222.145 95.6745L223.277 97.8945C223.366 98.0721 223.159 98.2497 222.87 98.2497H196.467C196.238 98.2497 196.053 98.1387 196.038 97.9907L195.809 95.7707C195.809 95.6153 195.994 95.4821 196.238 95.4821H221.701C221.786 95.4687 221.873 95.4797 221.951 95.5138C222.03 95.5479 222.097 95.6036 222.145 95.6745Z" fill="black"/>
<path opacity="0.3" d="M222.145 95.6745L223.277 97.8945C223.366 98.0721 223.159 98.2497 222.87 98.2497H196.467C196.238 98.2497 196.053 98.1387 196.038 97.9907L195.809 95.7707C195.809 95.6153 195.994 95.4821 196.238 95.4821H221.701C221.786 95.4687 221.873 95.4797 221.951 95.5138C222.03 95.5479 222.097 95.6036 222.145 95.6745Z" fill="white"/>
<path d="M218.741 98.5403H219.422C219.563 98.5403 219.666 98.4663 219.651 98.3849L219.333 95.4249C219.333 95.3361 219.207 95.2695 219.074 95.2695H218.386C218.253 95.2695 218.149 95.3361 218.157 95.4249L218.475 98.3849C218.467 98.4515 218.586 98.5403 218.741 98.5403Z" fill="#263238"/>
<path d="M202.171 98.5403H202.852C202.985 98.5403 203.089 98.4663 203.081 98.3849L202.763 95.4249C202.763 95.3361 202.637 95.2695 202.497 95.2695H201.816C201.675 95.2695 201.579 95.3361 201.586 95.4249L201.905 98.3849C201.912 98.4515 202.03 98.5403 202.171 98.5403Z" fill="#263238"/>
<path d="M105.2 138.287L103.428 138.256L100.544 133.719L100.466 138.204L98.6945 138.173L98.8214 130.902L100.593 130.933L103.477 135.49L103.555 130.984L105.327 131.015L105.2 138.287ZM109.921 138.442C109.238 138.43 108.612 138.26 108.044 137.933C107.484 137.605 107.039 137.155 106.711 136.583C106.389 136.004 106.235 135.359 106.247 134.648C106.259 133.936 106.436 133.3 106.778 132.74C107.126 132.18 107.586 131.746 108.158 131.438C108.736 131.13 109.368 130.982 110.051 130.994C110.735 131.006 111.357 131.176 111.918 131.503C112.485 131.831 112.927 132.281 113.241 132.853C113.563 133.425 113.717 134.067 113.705 134.778C113.693 135.489 113.516 136.128 113.174 136.696C112.833 137.256 112.376 137.69 111.804 137.998C111.233 138.306 110.605 138.454 109.921 138.442ZM109.949 136.826C110.53 136.836 110.996 136.651 111.348 136.27C111.707 135.89 111.892 135.382 111.903 134.746C111.914 134.104 111.747 133.59 111.401 133.204C111.063 132.811 110.603 132.61 110.023 132.6C109.436 132.59 108.963 132.771 108.605 133.145C108.253 133.519 108.071 134.03 108.06 134.679C108.049 135.322 108.212 135.839 108.551 136.232C108.896 136.618 109.363 136.816 109.949 136.826ZM121.371 137.284L118.657 137.237L118.199 138.514L116.345 138.482L119.103 131.256L121.154 131.292L123.658 138.609L121.783 138.576L121.371 137.284ZM120.939 135.909L120.084 133.231L119.147 135.878L120.939 135.909ZM127.089 138.742C126.557 138.732 126.082 138.638 125.664 138.458C125.246 138.278 124.912 138.016 124.662 137.673C124.419 137.331 124.295 136.921 124.29 136.444L126.175 136.477C126.198 136.747 126.288 136.956 126.444 137.104C126.6 137.244 126.806 137.317 127.062 137.322C127.324 137.326 127.532 137.271 127.686 137.156C127.84 137.035 127.919 136.867 127.923 136.653C127.926 136.473 127.867 136.324 127.744 136.204C127.629 136.085 127.482 135.985 127.304 135.906C127.133 135.827 126.886 135.737 126.563 135.634C126.096 135.481 125.715 135.329 125.421 135.179C125.126 135.029 124.874 134.81 124.665 134.524C124.456 134.237 124.356 133.865 124.364 133.41C124.375 132.733 124.63 132.209 125.127 131.838C125.624 131.459 126.266 131.277 127.053 131.291C127.854 131.305 128.496 131.51 128.98 131.905C129.464 132.293 129.717 132.83 129.739 133.514L127.823 133.48C127.813 133.245 127.73 133.061 127.574 132.927C127.417 132.786 127.215 132.713 126.966 132.709C126.752 132.705 126.578 132.761 126.445 132.876C126.312 132.984 126.244 133.145 126.24 133.359C126.236 133.594 126.343 133.779 126.562 133.914C126.78 134.049 127.123 134.197 127.59 134.357C128.057 134.524 128.434 134.683 128.722 134.833C129.016 134.983 129.268 135.198 129.477 135.478C129.686 135.758 129.787 136.115 129.78 136.55C129.772 136.965 129.659 137.339 129.439 137.674C129.226 138.009 128.917 138.273 128.513 138.466C128.109 138.659 127.634 138.751 127.089 138.742ZM133.462 138.853C132.93 138.844 132.455 138.749 132.037 138.569C131.619 138.389 131.285 138.128 131.035 137.785C130.792 137.442 130.668 137.032 130.663 136.556L132.548 136.588C132.571 136.858 132.66 137.067 132.817 137.215C132.973 137.356 133.179 137.428 133.435 137.433C133.697 137.437 133.905 137.382 134.059 137.268C134.213 137.146 134.292 136.978 134.296 136.764C134.299 136.584 134.24 136.435 134.117 136.315C134.002 136.196 133.855 136.097 133.677 136.018C133.506 135.939 133.259 135.848 132.936 135.746C132.469 135.592 132.088 135.441 131.793 135.29C131.499 135.14 131.247 134.922 131.038 134.635C130.829 134.348 130.728 133.977 130.736 133.521C130.748 132.844 131.003 132.32 131.5 131.949C131.997 131.571 132.639 131.388 133.426 131.402C134.227 131.416 134.869 131.621 135.353 132.016C135.837 132.404 136.09 132.941 136.112 133.625L134.196 133.592C134.186 133.357 134.103 133.172 133.947 133.038C133.79 132.897 133.588 132.825 133.339 132.82C133.125 132.817 132.951 132.872 132.818 132.987C132.685 133.096 132.616 133.257 132.613 133.471C132.609 133.706 132.716 133.89 132.935 134.026C133.153 134.161 133.496 134.308 133.963 134.468C134.43 134.635 134.807 134.794 135.095 134.944C135.389 135.094 135.641 135.309 135.85 135.589C136.059 135.869 136.16 136.227 136.153 136.662C136.145 137.076 136.032 137.451 135.812 137.785C135.599 138.12 135.29 138.384 134.886 138.577C134.482 138.77 134.007 138.862 133.462 138.853ZM139.078 133.024L139.053 134.495L141.425 134.536L141.401 135.904L139.029 135.862L139.001 137.457L141.684 137.504L141.659 138.923L137.205 138.846L137.332 131.574L141.786 131.652L141.761 133.071L139.078 133.024ZM148.167 131.763L148.142 133.182L146.215 133.149L146.113 139.001L144.342 138.97L144.444 133.118L142.517 133.084L142.542 131.665L148.167 131.763ZM151.559 139.169C151.027 139.159 150.552 139.065 150.134 138.885C149.715 138.705 149.381 138.443 149.132 138.101C148.889 137.758 148.765 137.348 148.76 136.871L150.645 136.904C150.668 137.174 150.757 137.383 150.914 137.531C151.07 137.672 151.276 137.744 151.532 137.749C151.794 137.753 152.002 137.698 152.156 137.583C152.31 137.462 152.389 137.294 152.393 137.08C152.396 136.9 152.336 136.751 152.214 136.631C152.099 136.512 151.952 136.413 151.774 136.333C151.603 136.254 151.355 136.164 151.033 136.061C150.566 135.908 150.185 135.757 149.89 135.606C149.596 135.456 149.344 135.238 149.135 134.951C148.926 134.664 148.825 134.293 148.833 133.837C148.845 133.16 149.099 132.636 149.596 132.265C150.093 131.887 150.736 131.704 151.523 131.718C152.324 131.732 152.966 131.937 153.45 132.332C153.933 132.72 154.187 133.257 154.209 133.941L152.293 133.907C152.283 133.672 152.2 133.488 152.043 133.354C151.887 133.213 151.685 133.14 151.436 133.136C151.222 133.132 151.048 133.188 150.915 133.303C150.782 133.411 150.713 133.573 150.71 133.787C150.706 134.021 150.813 134.206 151.032 134.341C151.25 134.476 151.593 134.624 152.06 134.784C152.527 134.951 152.904 135.11 153.191 135.26C153.486 135.41 153.738 135.625 153.947 135.905C154.156 136.185 154.257 136.543 154.249 136.978C154.242 137.392 154.129 137.766 153.909 138.101C153.696 138.436 153.387 138.7 152.983 138.893C152.579 139.086 152.104 139.178 151.559 139.169Z" fill="black"/>
</g>
<defs>
<clipPath id="clip0_2410_31347">
<rect width="288" height="252" fill="white"/>
</clipPath>
</defs>
</svg>
