<svg width="24" height="24" viewBox="0 0 24 24" fill="none" xmlns="http://www.w3.org/2000/svg">
<g id="Agency">
<path id="Vector" d="M17.0035 2H15.0035C13.1178 2 12.175 2 11.5893 2.58579C11.1177 3.05733 11.0257 3.76022 11.0078 5V22H16.2035C18.4662 22 19.5976 22 20.3005 21.2971C21.0035 20.5941 21.0035 19.4627 21.0035 17.2V6C21.0035 4.11438 21.0035 3.17157 20.4177 2.58579C19.8319 2 18.8891 2 17.0035 2Z" fill="black"/>
<path id="Vector_2" d="M11 5H7C5.11438 5 4.17157 5 3.58579 5.58579C3 6.17157 3 7.11438 3 9V22H15V9C15 7.11438 15 6.17157 14.4142 5.58579C13.8284 5 12.8856 5 11 5Z" fill="black" stroke="#E6E6E6" stroke-width="1.2"/>
<path id="Vector_3" d="M9 21V18" stroke="#E6E6E6" stroke-width="1.8" stroke-linecap="round"/>
<path id="Vector_4" d="M6 8H12" stroke="#E6E6E6" stroke-width="1.8" stroke-linecap="round"/>
<path id="Vector_5" d="M6 11H12" stroke="#E6E6E6" stroke-width="1.8" stroke-linecap="round"/>
<path id="Vector_6" d="M6 14H12" stroke="#E6E6E6" stroke-width="1.8" stroke-linecap="round"/>
<path id="Vector_7" d="M22 22L2 22" stroke="black" stroke-width="1.8" stroke-linecap="round"/>
</g>
</svg>
