<svg width="19" height="19" viewBox="0 0 19 19" fill="none" xmlns="http://www.w3.org/2000/svg">
<g id="Group">
<g id="Layer 5">
<path id="Vector" d="M18.0727 14.0504C18.0071 13.9844 17.9276 13.9339 17.84 13.9025C17.7524 13.8712 17.659 13.8598 17.5664 13.8691C17.464 13.3617 17.2371 12.8876 16.9061 12.4895C16.5752 12.0914 16.1505 11.7817 15.6702 11.5884C15.1899 11.3951 14.6692 11.3241 14.1547 11.3818C13.6402 11.4395 13.1481 11.6242 12.7227 11.9191C12.5961 12.0173 12.512 12.1602 12.4878 12.3185C12.4635 12.4768 12.501 12.6383 12.5924 12.7698C12.6838 12.9013 12.8222 12.9927 12.979 13.0252C13.1358 13.0576 13.2991 13.0286 13.4352 12.9441C13.6727 12.7798 13.9451 12.6725 14.231 12.6307C14.5168 12.5889 14.8085 12.6138 15.0832 12.7034C15.3579 12.7929 15.6081 12.9447 15.8145 13.1469C16.0208 13.3491 16.1776 13.5963 16.2727 13.8691C16.1612 13.8893 16.0573 13.9394 15.9721 14.014C15.8869 14.0887 15.8236 14.1851 15.7889 14.2929C15.7543 14.4007 15.7496 14.516 15.7753 14.6263C15.8011 14.7366 15.8563 14.8378 15.9352 14.9191L16.5602 15.5441C16.6183 15.6027 16.6874 15.6492 16.7635 15.6809C16.8397 15.7127 16.9214 15.729 17.0039 15.729C17.0864 15.729 17.1681 15.7127 17.2443 15.6809C17.3204 15.6492 17.3896 15.6027 17.4477 15.5441L18.0727 14.9191C18.1853 14.8026 18.2483 14.6469 18.2483 14.4848C18.2483 14.3227 18.1853 14.1669 18.0727 14.0504ZM15.5727 16.6566C15.3359 16.8213 15.0644 16.9291 14.7791 16.9717C14.4939 17.0142 14.2027 16.9905 13.9282 16.9022C13.6537 16.8139 13.4032 16.6635 13.1963 16.4626C12.9894 16.2618 12.8316 16.0159 12.7352 15.7441C12.8466 15.724 12.9505 15.6739 13.0357 15.5993C13.1209 15.5246 13.1842 15.4282 13.2189 15.3204C13.2536 15.2125 13.2583 15.0973 13.2325 14.987C13.2067 14.8767 13.1515 14.7755 13.0727 14.6941L12.4477 14.0691C12.3896 14.0106 12.3204 13.9641 12.2443 13.9323C12.1681 13.9006 12.0864 13.8843 12.0039 13.8843C11.9214 13.8843 11.8397 13.9006 11.7635 13.9323C11.6874 13.9641 11.6183 14.0106 11.5602 14.0691L10.9352 14.6941C10.8766 14.7522 10.8301 14.8214 10.7984 14.8975C10.7666 14.9737 10.7503 15.0554 10.7503 15.1379C10.7503 15.2204 10.7666 15.3021 10.7984 15.3783C10.8301 15.4544 10.8766 15.5235 10.9352 15.5816C11.0019 15.6454 11.0818 15.6936 11.1694 15.7228C11.2569 15.7519 11.3498 15.7614 11.4414 15.7504C11.5438 16.2579 11.7707 16.732 12.1017 17.1301C12.4327 17.5282 12.8574 17.8378 13.3376 18.0311C13.8179 18.2245 14.3386 18.2955 14.8531 18.2377C15.3676 18.18 15.8597 17.9954 16.2852 17.7004C16.3572 17.6557 16.4194 17.5967 16.468 17.5272C16.5165 17.4577 16.5504 17.379 16.5676 17.2959C16.5848 17.2129 16.5849 17.1272 16.5679 17.0441C16.5509 16.961 16.5172 16.8823 16.4688 16.8126C16.4204 16.743 16.3583 16.6839 16.2863 16.639C16.2144 16.5942 16.134 16.5644 16.0502 16.5516C15.9664 16.5387 15.8808 16.5431 15.7987 16.5644C15.7166 16.5857 15.6397 16.6234 15.5727 16.6754V16.6566ZM12.0039 10.9004C12.7379 10.3908 13.6103 10.1181 14.5039 10.1191V3.24414C14.5039 2.5811 14.2405 1.94521 13.7717 1.47637C13.3028 1.00753 12.667 0.744141 12.0039 0.744141H3.25391C2.59087 0.744141 1.95498 1.00753 1.48614 1.47637C1.0173 1.94521 0.75391 2.5811 0.75391 3.24414V15.1191C0.753507 15.2374 0.78667 15.3534 0.849549 15.4535C0.912427 15.5537 1.00244 15.634 1.10912 15.685C1.21581 15.7361 1.33479 15.7558 1.45225 15.742C1.5697 15.7281 1.68081 15.6812 1.77266 15.6066L2.94141 14.6691L4.11641 15.6066C4.22726 15.6954 4.36503 15.7437 4.50703 15.7437C4.64904 15.7437 4.78681 15.6954 4.89766 15.6066L6.06641 14.6691L7.24141 15.6066C7.35226 15.6954 7.49003 15.7437 7.63203 15.7437C7.77404 15.7437 7.91181 15.6954 8.02266 15.6066L9.19141 14.6691L9.52266 14.9316C9.56377 14.5027 9.75138 14.101 10.0539 13.7941L10.6789 13.1691C10.8404 13.0074 11.0313 12.878 11.2414 12.7879C11.1732 12.4333 11.2089 12.0665 11.3442 11.7317C11.4795 11.3968 11.7085 11.1082 12.0039 10.9004ZM8.25391 11.9941H4.50391C4.33815 11.9941 4.17918 11.9283 4.06197 11.8111C3.94476 11.6939 3.87891 11.5349 3.87891 11.3691C3.87891 11.2034 3.94476 11.0444 4.06197 10.9272C4.17918 10.81 4.33815 10.7441 4.50391 10.7441H8.25391C8.41967 10.7441 8.57864 10.81 8.69585 10.9272C8.81306 11.0444 8.87891 11.2034 8.87891 11.3691C8.87891 11.5349 8.81306 11.6939 8.69585 11.8111C8.57864 11.9283 8.41967 11.9941 8.25391 11.9941ZM8.25391 5.74414C8.58543 5.74414 8.90337 5.87584 9.13779 6.11026C9.37221 6.34468 9.50391 6.66262 9.50391 6.99414V7.61914C9.50391 7.95066 9.37221 8.2686 9.13779 8.50302C8.90337 8.73744 8.58543 8.86914 8.25391 8.86914C8.25391 9.0349 8.18806 9.19387 8.07085 9.31108C7.95364 9.42829 7.79467 9.49414 7.62891 9.49414C7.46315 9.49414 7.30418 9.42829 7.18697 9.31108C7.06976 9.19387 7.00391 9.0349 7.00391 8.86914H6.37891C6.21315 8.86914 6.05418 8.80329 5.93697 8.68608C5.81976 8.56887 5.75391 8.4099 5.75391 8.24414C5.75391 8.07838 5.81976 7.91941 5.93697 7.8022C6.05418 7.68499 6.21315 7.61914 6.37891 7.61914H8.25391V6.99414H7.00391C6.67239 6.99414 6.35445 6.86244 6.12003 6.62802C5.88561 6.3936 5.75391 6.07566 5.75391 5.74414V5.11914C5.75391 4.78762 5.88561 4.46968 6.12003 4.23526C6.35445 4.00084 6.67239 3.86914 7.00391 3.86914C7.00391 3.70338 7.06976 3.54441 7.18697 3.4272C7.30418 3.30999 7.46315 3.24414 7.62891 3.24414C7.79467 3.24414 7.95364 3.30999 8.07085 3.4272C8.18806 3.54441 8.25391 3.70338 8.25391 3.86914H8.87891C9.04467 3.86914 9.20364 3.93499 9.32085 4.0522C9.43806 4.16941 9.50391 4.32838 9.50391 4.49414C9.50391 4.6599 9.43806 4.81887 9.32085 4.93608C9.20364 5.05329 9.04467 5.11914 8.87891 5.11914H7.00391V5.74414H8.25391Z" fill="white"/>
</g>
</g>
</svg>
