<svg width="20" height="21" viewBox="0 0 20 21" fill="none" xmlns="http://www.w3.org/2000/svg">
<g id="Frame" clip-path="url(#clip0_2005_22572)">
<g id="Group">
<path id="Vector" d="M15.3125 11.125C12.7236 11.125 10.625 13.2236 10.625 15.8125C10.625 18.4013 12.7236 20.5 15.3125 20.5C17.9014 20.5 20 18.4013 20 15.8125C20 13.2236 17.9014 11.125 15.3125 11.125ZM17.0703 16.3984H15.3125C14.9886 16.3984 14.7266 16.1364 14.7266 15.8125V14.0547C14.7266 13.7308 14.9886 13.4688 15.3125 13.4688C15.6364 13.4688 15.8984 13.7308 15.8984 14.0547V15.2266H17.0703C17.3942 15.2266 17.6562 15.4886 17.6562 15.8125C17.6562 16.1364 17.3942 16.3984 17.0703 16.3984ZM14.1406 3.42969C14.1406 2.46039 13.3521 1.67188 12.3828 1.67188H11.2109V1.08594C11.2109 0.76207 10.9489 0.5 10.625 0.5C10.3011 0.5 10.0391 0.76207 10.0391 1.08594V1.67188H7.69531V1.08594C7.69531 0.76207 7.43324 0.5 7.10938 0.5C6.78551 0.5 6.52344 0.76207 6.52344 1.08594V1.67188H4.17969V1.08594C4.17969 0.76207 3.91762 0.5 3.59375 0.5C3.26988 0.5 3.00781 0.76207 3.00781 1.08594V1.67188H1.75781C0.788516 1.67188 0 2.46039 0 3.42969V4.01562H14.1406V3.42969Z" fill="white"/>
<path id="Vector_2" d="M14.1406 10.0716V5.1875H0V12.8828C0 13.8521 0.788516 14.6406 1.75781 14.6406H9.57156C10.0389 12.3484 11.8484 10.5389 14.1406 10.0716ZM10.0391 6.4375H11.2109C11.5348 6.4375 11.7969 6.69957 11.7969 7.02344C11.7969 7.3473 11.5348 7.60938 11.2109 7.60938H10.0391C9.7152 7.60938 9.45312 7.3473 9.45312 7.02344C9.45312 6.69957 9.7152 6.4375 10.0391 6.4375ZM4.17969 12.2969H3.00781C2.68395 12.2969 2.42188 12.0348 2.42188 11.7109C2.42188 11.3871 2.68395 11.125 3.00781 11.125H4.17969C4.50355 11.125 4.76562 11.3871 4.76562 11.7109C4.76562 12.0348 4.50355 12.2969 4.17969 12.2969ZM4.17969 9.95312H3.00781C2.68395 9.95312 2.42188 9.69105 2.42188 9.36719C2.42188 9.04332 2.68395 8.78125 3.00781 8.78125H4.17969C4.50355 8.78125 4.76562 9.04332 4.76562 9.36719C4.76562 9.69105 4.50355 9.95312 4.17969 9.95312ZM4.17969 7.60938H3.00781C2.68395 7.60938 2.42188 7.3473 2.42188 7.02344C2.42188 6.69957 2.68395 6.4375 3.00781 6.4375H4.17969C4.50355 6.4375 4.76562 6.69957 4.76562 7.02344C4.76562 7.3473 4.50355 7.60938 4.17969 7.60938ZM7.69531 12.2969H6.52344C6.19957 12.2969 5.9375 12.0348 5.9375 11.7109C5.9375 11.3871 6.19957 11.125 6.52344 11.125H7.69531C8.01918 11.125 8.28125 11.3871 8.28125 11.7109C8.28125 12.0348 8.01918 12.2969 7.69531 12.2969ZM7.69531 9.95312H6.52344C6.19957 9.95312 5.9375 9.69105 5.9375 9.36719C5.9375 9.04332 6.19957 8.78125 6.52344 8.78125H7.69531C8.01918 8.78125 8.28125 9.04332 8.28125 9.36719C8.28125 9.69105 8.01918 9.95312 7.69531 9.95312ZM7.69531 7.60938H6.52344C6.19957 7.60938 5.9375 7.3473 5.9375 7.02344C5.9375 6.69957 6.19957 6.4375 6.52344 6.4375H7.69531C8.01918 6.4375 8.28125 6.69957 8.28125 7.02344C8.28125 7.3473 8.01918 7.60938 7.69531 7.60938ZM9.45312 9.36719C9.45312 9.04332 9.7152 8.78125 10.0391 8.78125H11.2109C11.5348 8.78125 11.7969 9.04332 11.7969 9.36719C11.7969 9.69105 11.5348 9.95312 11.2109 9.95312H10.0391C9.7152 9.95312 9.45312 9.69105 9.45312 9.36719Z" fill="white"/>
</g>
</g>
<defs>
<clipPath id="clip0_2005_22572">
<rect width="20" height="20" fill="white" transform="translate(0 0.5)"/>
</clipPath>
</defs>
</svg>
